Coordinates
version=1
nRows=19
nColumns=63
inDegrees=yes

Units are S.I. units (second, meters, Newtons, ...)
If the header above contains a line with 'inDegrees', this indicates whether rotational values are in degrees (yes) or radians (no).

endheader
time	pelvis_tilt	pelvis_list	pelvis_rotation	pelvis_tx	pelvis_ty	pelvis_tz	hip_flexion_r	hip_adduction_r	hip_rotation_r	knee_angle_r	knee_angle_r_beta	ankle_angle_r	subtalar_angle_r	mtp_angle_r	hip_flexion_l	hip_adduction_l	hip_rotation_l	knee_angle_l	knee_angle_l_beta	ankle_angle_l	subtalar_angle_l	mtp_angle_l	L5_S1_Flex_Ext	L5_S1_Lat_Bending	L5_S1_axial_rotation	L4_L5_Flex_Ext	L4_L5_Lat_Bending	L4_L5_axial_rotation	L3_L4_Flex_Ext	L3_L4_Lat_Bending	L3_L4_axial_rotation	L2_L3_Flex_Ext	L2_L3_Lat_Bending	L2_L3_axial_rotation	L1_L2_Flex_Ext	L1_L2_Lat_Bending	L1_L2_axial_rotation	L1_T12_Flex_Ext	L1_T12_Lat_Bending	L1_T12_axial_rotation	Abs_r3	Abs_r2	Abs_r1	Abs_t1	Abs_t2	neck_flexion	neck_bending	neck_rotation	arm_flex_r	arm_add_r	arm_rot_r	elbow_flex_r	pro_sup_r	wrist_flex_r	wrist_dev_r	arm_flex_l	arm_add_l	arm_rot_l	elbow_flex_l	pro_sup_l	wrist_flex_l	wrist_dev_l
3.650000	-4.185723	-24.336975	82.805794	0.261436	1.071243	0.405685	21.384235	-1.969234	20.701951	20.410378	0.356228	40.159372	-12.364340	0.000000	19.685228	0.084599	-16.372234	21.714601	0.378991	40.655498	9.003452	0.000000	-0.396906	0.646574	0.943698	-0.737094	0.859943	1.002679	-0.652076	1.572079	1.002679	-0.453624	1.572079	0.825736	-0.368567	1.318493	0.766754	-0.226792	1.001542	0.707773	-2.835058	7.314170	5.248564	0.000000	0.000000	-12.226217	0.580520	-2.529513	17.436182	5.095438	10.176676	119.555305	88.477863	-15.560902	11.350165	15.379208	-2.937599	10.123505	124.762403	84.498132	-7.527661	13.249800
3.666667	-4.194784	-24.382061	82.776199	0.261893	1.071234	0.406697	21.488204	-1.921263	20.757820	20.426752	0.356514	40.224276	-12.392633	0.000000	19.783338	0.043173	-16.302611	21.744189	0.379508	40.696562	9.002357	0.000000	-0.399792	0.638369	0.942104	-0.742453	0.849031	1.000986	-0.656818	1.552131	1.000986	-0.456922	1.552131	0.824341	-0.371247	1.301763	0.765460	-0.228441	0.988834	0.706578	-2.855672	7.221362	5.239702	0.000000	0.000000	-12.368429	1.217632	-2.636104	17.812824	4.703311	10.072472	119.771232	88.521531	-15.355982	12.036812	15.999751	-2.668312	10.289031	124.155215	84.805851	-8.089654	11.699025
3.683333	-4.246216	-24.442813	82.623306	0.262430	1.071170	0.407838	21.637118	-1.878539	20.844960	20.458307	0.357065	40.224771	-12.399066	0.000000	19.888834	0.005143	-16.340490	21.744858	0.379519	40.736140	9.004058	0.000000	-0.402726	0.625891	0.921023	-0.747902	0.832435	0.978587	-0.661638	1.521792	0.978587	-0.460275	1.521792	0.805895	-0.373971	1.276317	0.748331	-0.230117	0.969505	0.690767	-2.876629	7.080206	5.122455	0.000000	0.000000	-12.536973	1.609487	-2.615683	18.278035	4.298552	10.217769	119.915010	88.577692	-15.100707	12.691120	16.523419	-2.496046	10.227502	123.664603	85.237618	-8.383679	10.107554
3.700000	-4.298019	-24.525536	82.455757	0.262917	1.071060	0.409040	21.808628	-1.841875	20.881816	20.484593	0.357524	40.158774	-12.420008	0.000000	20.012030	-0.031997	-16.388886	21.721942	0.379119	40.752530	8.990747	0.000000	-0.406765	0.615379	0.844409	-0.755403	0.818455	0.897185	-0.668274	1.496233	0.897185	-0.464891	1.496233	0.738858	-0.377722	1.254882	0.686082	-0.232425	0.953223	0.633307	-2.905479	6.961294	4.696350	0.000000	0.000000	-12.678086	1.744423	-2.240685	18.865649	3.929254	10.710573	119.939306	88.637549	-14.848235	13.309660	16.840750	-2.395927	9.832228	123.392448	85.781925	-8.462135	8.514370
3.716667	-4.330067	-24.644861	82.291791	0.263355	1.070900	0.410264	22.010353	-1.791990	20.856456	20.506949	0.357914	40.009519	-12.478555	0.000000	20.166604	-0.087425	-16.422654	21.681955	0.378422	40.753910	8.960123	0.000000	-0.409304	0.608639	0.717558	-0.760119	0.809489	0.762405	-0.672446	1.479844	0.762405	-0.467794	1.479844	0.627863	-0.380080	1.241136	0.583016	-0.233876	0.942781	0.538168	-2.923619	6.885042	3.990841	0.000000	0.000000	-12.795517	1.622812	-1.589210	19.542064	3.605000	11.501386	119.825022	88.707891	-14.559858	13.695683	16.952586	-2.378514	9.180740	123.337863	86.405066	-8.383185	6.900039
3.733333	-4.332157	-24.803486	82.130374	0.263707	1.070693	0.411491	22.246185	-1.719556	20.790529	20.528665	0.358293	39.789439	-12.582698	0.000000	20.356773	-0.160486	-16.409098	21.625532	0.377437	40.715384	8.840622	0.000000	-0.411111	0.607922	0.541010	-0.763474	0.808536	0.574823	-0.675414	1.478101	0.574823	-0.469859	1.478101	0.473383	-0.381758	1.239674	0.439570	-0.234909	0.941671	0.405757	-2.936525	6.876934	3.008934	0.000000	0.000000	-12.842362	1.181865	-0.665052	20.305451	3.359137	12.573219	119.576478	88.762039	-14.257502	13.925665	16.834437	-2.420953	8.314097	123.525894	87.032601	-8.380222	5.271507
3.750000	-4.286131	-25.000288	81.990675	0.263979	1.070436	0.412704	22.516536	-1.606122	20.682707	20.566399	0.358951	39.511747	-12.744348	0.000000	20.582173	-0.273720	-16.364540	21.564993	0.376380	40.653640	8.682097	0.000000	-0.411420	0.614111	0.318326	-0.764048	0.816768	0.338222	-0.675921	1.493150	0.338222	-0.470212	1.493150	0.278536	-0.382044	1.252296	0.258640	-0.235085	0.951259	0.238745	-2.938730	6.946951	1.770435	0.000000	0.000000	-12.839444	0.490666	0.506187	21.135121	3.198655	13.876593	119.196337	88.807768	-13.956204	13.992291	16.501735	-2.479318	7.238612	123.940953	87.622180	-8.410261	3.741481
3.766667	-4.191279	-25.230257	81.871624	0.264166	1.070134	0.413908	22.817316	-1.457241	20.514262	20.614412	0.359789	39.214843	-12.894777	0.000000	20.840955	-0.428030	-16.294718	21.506127	0.375353	40.574548	8.487795	0.000000	-0.411128	0.627961	0.046429	-0.763506	0.835188	0.049331	-0.675443	1.526825	0.049331	-0.469879	1.526825	0.040625	-0.381774	1.280538	0.037723	-0.234919	0.972712	0.034822	-2.936648	7.103622	0.258223	0.000000	0.000000	-12.801907	-0.489401	1.965174	22.044723	3.147102	15.423014	118.665251	88.833767	-13.681936	13.939404	15.953094	-2.538706	5.908999	124.582984	88.168771	-8.421625	2.375598
3.783333	-4.030010	-25.473363	81.776056	0.264279	1.069814	0.415114	23.127457	-1.247446	20.335716	20.677478	0.360890	38.886667	-13.090311	0.000000	21.124147	-0.632553	-16.131385	21.474705	0.374804	40.488018	8.194449	0.000000	-0.411990	0.649283	-0.247757	-0.765107	0.863546	-0.263242	-0.676859	1.578667	-0.263242	-0.470863	1.578667	-0.216787	-0.382574	1.324018	-0.201303	-0.235411	1.005739	-0.185818	-2.942804	7.344819	-1.377950	0.000000	0.000000	-12.756908	-1.647717	3.522535	22.992703	3.163125	17.061937	118.064777	88.839886	-13.422051	13.842236	15.288108	-2.571418	4.516583	125.356582	88.464207	-8.597219	1.187315
3.800000	-3.799040	-25.731727	81.782179	0.264244	1.069461	0.416323	23.452695	-1.018643	20.007707	20.762564	0.362375	38.589695	-13.197760	0.000000	21.448722	-0.850659	-15.764690	21.478500	0.374871	40.391273	7.731069	0.000000	-0.412539	0.678537	-0.579640	-0.766125	0.902455	-0.615867	-0.677760	1.649796	-0.615867	-0.471490	1.649796	-0.507185	-0.383083	1.383673	-0.470957	-0.235725	1.051054	-0.434730	-2.946722	7.675751	-3.223782	0.000000	0.000000	-12.726163	-2.999928	5.190778	23.985129	3.261564	18.812792	117.375689	88.823784	-13.237069	13.688055	14.514114	-2.559138	3.007211	126.235622	88.599025	-8.813574	0.186413
3.816667	-3.514221	-25.979300	81.833391	0.264173	1.069110	0.417540	23.768797	-0.753388	19.627869	20.868558	0.364225	38.301231	-13.266945	0.000000	21.782625	-1.093749	-15.251766	21.522034	0.375630	40.298675	7.129479	0.000000	-0.414594	0.711581	-0.919645	-0.769942	0.946403	-0.977123	-0.681136	1.730138	-0.977123	-0.473839	1.730138	-0.804690	-0.384992	1.451056	-0.747212	-0.236899	1.102239	-0.689734	-2.961402	8.049549	-5.114791	0.000000	0.000000	-12.741047	-4.410855	6.862331	24.960055	3.432765	20.535407	116.662252	88.803526	-13.054179	13.524547	13.707831	-2.509948	1.522917	127.128460	88.556973	-9.119480	-0.717128
3.833333	-3.220725	-26.208162	81.851832	0.264226	1.068756	0.418772	24.081218	-0.455682	19.301109	21.003084	0.366573	38.019891	-13.330413	0.000000	22.109023	-1.352299	-14.692498	21.595539	0.376913	40.222233	6.436006	0.000000	-0.417332	0.741699	-1.246902	-0.775027	0.986460	-1.324834	-0.685634	1.803367	-1.324834	-0.476969	1.803367	-1.091040	-0.387534	1.512473	-1.013108	-0.238463	1.148892	-0.935177	-2.980959	8.390248	-6.934897	0.000000	0.000000	-12.818061	-5.874766	8.433154	25.877007	3.687316	22.187298	115.938908	88.766485	-12.939012	13.289234	12.925401	-2.461630	0.079429	128.023958	88.342966	-9.355286	-1.303069
3.850000	-2.916849	-26.392030	81.872024	0.264367	1.068443	0.420054	24.360028	-0.141059	18.989750	21.157376	0.369266	37.759046	-13.365358	0.000000	22.408961	-1.618097	-14.079064	21.709189	0.378897	40.161900	5.690945	0.000000	-0.424823	0.768189	-1.555439	-0.788940	1.021692	-1.652654	-0.697942	1.867775	-1.652654	-0.485531	1.867775	-1.361009	-0.394491	1.566491	-1.263794	-0.242744	1.189925	-1.166579	-3.034472	8.689910	-8.650886	0.000000	0.000000	-12.919144	-7.212946	9.936977	26.733796	4.037011	23.671903	115.234588	88.742633	-12.833962	13.098647	12.222177	-2.421644	-1.232328	128.833360	88.126756	-9.549826	-1.854955
3.866667	-2.561354	-26.556318	81.977208	0.264543	1.068144	0.421362	24.610893	0.195047	18.604230	21.305432	0.371850	37.530430	-13.340887	0.000000	22.711216	-1.910671	-13.352339	21.869398	0.381693	40.140473	4.943907	0.000000	-0.433556	0.795463	-1.842971	-0.805157	1.057966	-1.958157	-0.712290	1.934089	-1.958157	-0.495512	1.934089	-1.612600	-0.402600	1.622108	-1.497414	-0.247734	1.232172	-1.382229	-3.096849	8.998436	-10.250054	0.000000	0.000000	-13.053493	-8.426579	11.220267	27.513870	4.436977	24.941977	114.568996	88.721105	-12.770460	12.938016	11.636880	-2.376317	-2.326242	129.501480	87.831042	-9.747447	-2.411689
3.883333	-2.242843	-26.672295	82.008262	0.264946	1.067884	0.422784	24.841744	0.538843	18.321859	21.480764	0.374910	37.339807	-13.298453	0.000000	22.975517	-2.192096	-12.646129	22.046296	0.384780	40.140606	4.174530	0.000000	-0.445226	0.812268	-2.090865	-0.826829	1.080317	-2.221544	-0.731461	1.974949	-2.221544	-0.508848	1.974949	-1.829507	-0.413437	1.656378	-1.698828	-0.254402	1.258204	-1.568149	-3.180203	9.188542	-11.628763	0.000000	0.000000	-13.213316	-9.443112	12.326412	28.233819	4.927739	25.997268	113.913155	88.701228	-12.745199	12.821846	11.187839	-2.349242	-3.293359	130.080563	87.487721	-9.878638	-2.677834
3.900000	-1.986991	-26.726921	81.940170	0.265592	1.067662	0.424343	25.055412	0.877157	18.173397	21.706905	0.378857	37.209596	-13.254528	0.000000	23.192273	-2.444092	-12.000384	22.241730	0.388191	40.162254	3.391416	0.000000	-0.461643	0.814476	-2.290202	-0.857318	1.083253	-2.433340	-0.758434	1.980317	-2.433340	-0.527612	1.980317	-2.003927	-0.428682	1.660880	-1.860789	-0.263783	1.261624	-1.717652	-3.297472	9.213518	-12.737418	0.000000	0.000000	-13.373045	-10.169475	13.244288	28.910520	5.482945	26.811784	113.303740	88.680063	-12.755573	12.843613	10.914289	-2.305978	-4.126971	130.520271	87.179555	-9.935905	-2.802341
3.916667	-1.743362	-26.758941	81.880225	0.266381	1.067467	0.426065	25.260727	1.216192	18.055123	21.944358	0.383001	37.119421	-13.210914	0.000000	23.407574	-2.694760	-11.343317	22.469920	0.392174	40.229429	2.667019	0.000000	-0.480001	0.807970	-2.446172	-0.891410	1.074600	-2.599057	-0.788594	1.964497	-2.599057	-0.548593	1.964497	-2.140400	-0.445729	1.647612	-1.987514	-0.274273	1.251545	-1.834629	-3.428599	9.139913	-13.604872	0.000000	0.000000	-13.579161	-10.630153	13.835016	29.544858	6.040232	27.352696	112.751251	88.664138	-12.782744	12.927612	10.858800	-2.205778	-4.775457	130.762385	86.816845	-10.005626	-2.846400
3.933333	-1.618188	-26.719702	81.636936	0.267516	1.067333	0.427985	25.451956	1.524856	18.119892	22.223801	0.387878	37.082533	-13.150558	0.000000	23.552281	-2.890490	-10.848434	22.679368	0.395830	40.307304	1.956186	0.000000	-0.502791	0.778161	-2.534725	-0.933733	1.034954	-2.693145	-0.826035	1.892020	-2.693145	-0.574640	1.892020	-2.217884	-0.466892	1.586825	-2.059464	-0.287295	1.205371	-1.901044	-3.591384	8.802709	-14.097378	0.000000	0.000000	-13.798976	-10.749420	14.180685	30.175416	6.578023	27.643570	112.267910	88.641958	-12.839028	13.140222	11.060017	-2.051007	-5.322854	130.855798	86.502360	-9.968965	-2.577045
3.950000	-1.561829	-26.653195	81.340939	0.268862	1.067238	0.430034	25.639462	1.797852	18.244631	22.519824	0.393045	37.082165	-13.069484	0.000000	23.673727	-3.048683	-10.406568	22.889033	0.399489	40.406334	1.296034	0.000000	-0.528129	0.732917	-2.593409	-0.980788	0.974780	-2.755497	-0.867663	1.782016	-2.755497	-0.603599	1.782016	-2.269233	-0.490421	1.494565	-2.107145	-0.301773	1.135289	-1.945057	-3.772373	8.290909	-14.423763	0.000000	0.000000	-14.063735	-10.646985	14.417529	30.836881	7.082807	27.809479	111.816505	88.622431	-12.928468	13.391633	11.452024	-1.818386	-5.875772	130.839897	86.230477	-9.833468	-2.193464
